#!OML:ASF F:\VICON\USERDATA\INSTALL\rory3\rory3.ASF
:FULLY-SPECIFIED
:DEGREES
206
root 0.298475 16.658 -6.73175 8.32121 -0.722954 -3.26658
lowerback -2.33599 1.52654 3.47685
upperback -1.96273 1.98698 1.92849
thorax -0.655863 0.969244 0.0654087
lowerneck -15.5704 0.108336 -1.90926
upperneck 41.2512 1.41425 -1.07265
head 17.9771 0.141785 0.125706
rclavicle -1.67228e-014 -2.0276e-014
rhumerus -41.6847 -15.0346 -69.0123
rradius 23.5217
rwrist -6.01394
rhand -2.83452 10.2737
rfingers 7.12502
rthumb 22.8728 -18.3899
lclavicle -1.67228e-014 -2.0276e-014
lhumerus -47.1204 25.1035 60.254
lradius 42.2215
lwrist 3.75045
lhand -2.952 20.2299
lfingers 7.12502
lthumb 22.76 48.9073
rfemur -30.2378 14.8689 23.7259
rtibia 32.352
rfoot -14.1888 -17.3375
rtoes 0.998538
lfemur -8.21221 0.142587 -19.8715
ltibia 51.5876
lfoot -7.45567 24.9077
ltoes 10.0861
207
root 0.283374 16.6681 -6.58703 8.30422 -0.691569 -3.58357
lowerback -2.29923 1.6215 3.93897
upperback -1.91658 2.10619 1.94409
thorax -0.611167 1.025 -0.173745
lowerneck -16.6541 0.352038 -0.74836
upperneck 42.0579 1.85928 -2.05695
head 18.7934 0.352798 -0.466187
rclavicle 3.33461e-014 1.35174e-014
rhumerus -41.6114 -14.8088 -69.3186
rradius 23.8852
rwrist -7.23346
rhand -3.42803 10.7179
rfingers 7.12502
rthumb 22.3031 -18.015
lclavicle 3.33461e-014 1.35174e-014
lhumerus -47.5158 25.4173 60.2297
lradius 41.6121
lwrist 3.85886
lhand -2.56232 20.2802
lfingers 7.12502
lthumb 23.134 48.9112
rfemur -29.456 14.8723 24.2996
rtibia 32.1305
rfoot -14.4391 -17.3789
rtoes -0.039601
lfemur -9.73095 0.711532 -19.3804
ltibia 53.7932
lfoot -7.98205 24.1174
ltoes 9.32268
208
root 0.266448 16.6819 -6.43897 8.21547 -0.757346 -3.92957
lowerback -2.2585 1.73749 4.32271
upperback -1.75415 2.25026 2.04433
thorax -0.452654 1.09788 -0.279653
lowerneck -16.0298 -0.0234485 -1.77731
upperneck 41.1069 1.24958 -1.24511
head 18.0194 0.0728705 -0.00836974
rclavicle 9.39258e-015 -4.77083e-015
rhumerus -41.3439 -14.1965 -69.7996
rradius 24.693
rwrist -8.62968
rhand -4.00881 10.539
rfingers 7.12502
rthumb 21.7455 -18.2595
lclavicle 9.39258e-015 -4.77083e-015
lhumerus -47.7679 25.8822 60.3359
lradius 40.9413
lwrist 3.87084
lhand -2.01338 19.9467
lfingers 7.12502
lthumb 23.6606 48.5106
rfemur -28.5769 14.8716 24.9344
rtibia 31.856
rfoot -14.6848 -17.3736
rtoes -0.40644
lfemur -11.098 1.31748 -18.8661
ltibia 55.7672
lfoot -8.50169 23.2152
ltoes 9.09382
209
root 0.245759 16.6954 -6.29334 8.25145 -0.966565 -4.13028
lowerback -2.59687 1.85917 4.45189
upperback -1.38577 2.37188 2.14826
thorax 0.12047 1.17147 -0.222732
lowerneck -16.2091 -0.15814 -2.36755
upperneck 40.6193 1.07362 -0.836319
head 17.7759 -0.0279823 0.255882
rclavicle -1.31446e-014 -2.38542e-014
rhumerus -40.5356 -13.5004 -70.445
rradius 25.4447
rwrist -9.87225
rhand -4.24888 10.1274
rfingers 7.12502
rthumb 21.5149 -18.6977
lclavicle -1.31446e-014 -2.38542e-014
lhumerus -47.5879 26.1975 60.9764
lradius 40.501
lwrist 4.56884
lhand -2.05309 20.9952
lfingers 7.12502
lthumb 23.6225 49.564
rfemur -27.8635 14.9059 25.383
rtibia 31.5366
rfoot -14.6691 -17.2566
rtoes -0.0752468
lfemur -12.6637 1.9242 -18.5238
ltibia 57.5578
lfoot -7.84671 22.8203
ltoes 6.31269
210
root 0.231813 16.7095 -6.15654 8.35885 -1.1775 -4.12814
lowerback -2.20444 1.99297 4.54016
upperback -1.73517 2.58965 2.08469
thorax -0.443924 1.26602 -0.352859
lowerneck -16.1421 -0.0798308 -2.22252
upperneck 41.0417 1.19957 -0.932286
head 18.0055 0.0286464 0.209262
rclavicle -5.04416e-015 -5.56597e-015
rhumerus -40.9388 -13.0557 -70.5792
rradius 25.9914
rwrist -10.673
rhand -4.33683 10.039
rfingers 7.12502
rthumb 21.4305 -18.7957
lclavicle -5.04416e-015 -5.56597e-015
lhumerus -48.2721 26.1064 60.8881
lradius 39.5923
lwrist 4.71319
lhand -1.91166 21.7762
lfingers 7.12502
lthumb 23.7581 50.3275
rfemur -27.2249 14.7944 25.5715
rtibia 31.2044
rfoot -14.652 -17.0161
rtoes 0.711118
lfemur -14.3182 2.4222 -18.4993
ltibia 59.1649
lfoot -7.21562 22.3987
ltoes 4.42384
